<svg width="current" height="current" viewBox="0 0 23 20" fill="none" xmlns="http://www.w3.org/2000/svg">
<path d="M11.4108 0C5.42629 0 0.600006 3.86098 0.600006 8.54826C0.600006 11.5908 2.60774 14.2549 5.61933 15.7761L4.60002 19.5832C4.58081 19.6401 4.57786 19.7015 4.5915 19.7599C4.60514 19.8186 4.63482 19.8725 4.67725 19.9152C4.73911 19.9696 4.81871 19.9998 4.90119 20C4.96958 19.9946 5.03446 19.9675 5.08651 19.9229L9.47264 16.9654C10.1201 17.0547 10.7727 17.101 11.4264 17.1043C17.4032 17.1043 22.2371 13.2433 22.2371 8.54826C22.2371 3.85327 17.3877 0 11.4108 0Z" fill="#392020"/>
<path d="M4.38344 7.19688H3.20196C3.05554 7.20113 2.9109 7.16362 2.78497 7.08875C2.72907 7.05372 2.681 7.0075 2.6438 6.95301C2.60658 6.89853 2.58103 6.83694 2.56876 6.77212C2.56501 6.73103 2.56501 6.68973 2.56876 6.64864C2.56509 6.57174 2.58001 6.49505 2.61227 6.42515C2.64455 6.35524 2.69318 6.29417 2.75408 6.24708C2.88871 6.14958 3.05121 6.09806 3.2174 6.10031H6.77727C6.92487 6.09512 7.07048 6.13559 7.19426 6.21615C7.25149 6.24964 7.30058 6.29544 7.33797 6.3502C7.37534 6.40495 7.40012 6.46731 7.41049 6.53279C7.41426 6.5713 7.41426 6.61011 7.41049 6.64864C7.41412 6.72664 7.39923 6.80439 7.36701 6.87553C7.33479 6.94668 7.28619 7.00912 7.22515 7.05784C7.09381 7.15521 6.93289 7.20436 6.76954 7.19688H5.6267V11.2588C5.63133 11.3451 5.61794 11.4317 5.58736 11.5129C5.55679 11.5939 5.50971 11.6677 5.44908 11.7297C5.39095 11.7889 5.32108 11.8353 5.24393 11.8658C5.16679 11.8964 5.08412 11.9107 5.00119 11.9074C4.85618 11.9114 4.71422 11.8651 4.59965 11.776C4.49057 11.6891 4.41655 11.5658 4.39116 11.4286C4.38352 11.3723 4.38352 11.3151 4.39116 11.2588L4.38344 7.19688Z" fill="#FEE500"/>
<path d="M7.75137 6.40141C7.78534 6.27434 7.8651 6.1643 7.97532 6.09251C8.09275 6.02596 8.22657 5.99383 8.36141 5.99985H8.65485C8.79794 5.99472 8.93965 6.02948 9.06413 6.10024C9.19602 6.18894 9.28976 6.32401 9.32667 6.47861L10.8711 10.8416C10.9111 10.9554 10.9446 11.0714 10.9715 11.1891C10.9741 11.238 10.9741 11.2869 10.9715 11.3357C10.9741 11.4111 10.9602 11.4859 10.9309 11.5554C10.9015 11.6246 10.8574 11.6868 10.8016 11.7374C10.7475 11.7928 10.6825 11.8366 10.6108 11.8659C10.5391 11.8949 10.462 11.9091 10.3846 11.9072C10.2655 11.9191 10.1459 11.8905 10.045 11.826C9.94415 11.7616 9.86792 11.665 9.8286 11.5521L9.50427 10.6023H7.47338L7.14905 11.5521C7.1107 11.6673 7.03354 11.7658 6.93075 11.8305C6.82797 11.8953 6.7059 11.9224 6.58535 11.9072C6.45476 11.9107 6.32687 11.8699 6.22242 11.7914C6.12064 11.7104 6.05197 11.5952 6.02935 11.4671C6.02525 11.4234 6.02525 11.3794 6.02935 11.3357C6.0161 11.2592 6.0161 11.1809 6.02935 11.1041C6.02935 11.0193 6.08342 10.9266 6.11429 10.8416L7.75137 6.40141ZM8.52359 7.41305L7.78998 9.72967H9.24944L8.52359 7.41305Z" fill="#FEE500"/>
<path d="M11.1483 6.64875C11.1405 6.47544 11.2015 6.30611 11.3182 6.17771C11.3775 6.11789 11.4487 6.07115 11.5272 6.04056C11.6057 6.00996 11.6897 5.99613 11.7738 6.00001C11.9184 5.99834 12.0596 6.04452 12.1754 6.13133C12.2826 6.22191 12.3539 6.34791 12.376 6.48652C12.3837 6.5403 12.3837 6.59495 12.376 6.64875V10.7106H14.4997C14.6468 10.7086 14.7916 10.7487 14.9167 10.8264C14.9728 10.861 15.0211 10.9072 15.0584 10.9616C15.0958 11.0162 15.1212 11.078 15.1329 11.143C15.1329 11.143 15.1329 11.2201 15.1329 11.2588C15.1365 11.3357 15.1215 11.4123 15.0894 11.4821C15.0571 11.5521 15.0084 11.6133 14.9476 11.6604C14.813 11.7578 14.6505 11.8093 14.4843 11.807H11.8742C11.708 11.8178 11.5428 11.7745 11.4031 11.6835C11.2783 11.5902 11.1951 11.4515 11.1715 11.2974C11.1658 11.2126 11.1658 11.1274 11.1715 11.0426L11.1483 6.64875Z" fill="#FEE500"/>
<path d="M15.2719 6.64889C15.2673 6.4761 15.3279 6.30792 15.4417 6.17785C15.5575 6.07269 15.706 6.01058 15.8622 6.00213C16.0182 5.99371 16.1725 6.03939 16.2989 6.13147C16.4085 6.22126 16.4826 6.3472 16.5074 6.48666C16.5112 6.54065 16.5112 6.5949 16.5074 6.64889V8.54075L18.4611 6.28588C18.5364 6.20895 18.6164 6.13682 18.7004 6.06973C18.7799 6.0225 18.8709 5.99836 18.963 6.00017C19.098 5.99942 19.23 6.03985 19.3414 6.11601C19.3939 6.15136 19.4387 6.19699 19.4733 6.25006C19.5078 6.30313 19.5312 6.36259 19.5422 6.42491C19.5453 6.4402 19.5453 6.456 19.5422 6.47129C19.5385 6.48912 19.5385 6.50749 19.5422 6.5253C19.542 6.60655 19.5206 6.6864 19.4804 6.75699C19.4395 6.83176 19.3902 6.90161 19.3337 6.96541L18.0518 8.37088L19.5962 10.7646V10.8419C19.6765 10.9525 19.739 11.0751 19.7817 11.2049V11.2434C19.7905 11.333 19.7776 11.4232 19.744 11.5067C19.7103 11.59 19.657 11.6641 19.5885 11.7222C19.4597 11.8197 19.3021 11.8712 19.1407 11.8689C19.0334 11.8733 18.9268 11.8493 18.8318 11.7995C18.7289 11.7304 18.6443 11.6377 18.5846 11.5292L17.1483 9.21257L16.461 9.93075V11.2203C16.4657 11.393 16.4051 11.5612 16.2912 11.6914C16.2302 11.751 16.1577 11.7976 16.0779 11.8281C15.9982 11.8585 15.9132 11.8726 15.828 11.8689C15.6855 11.872 15.5464 11.8256 15.434 11.7377C15.325 11.6508 15.2509 11.5273 15.2255 11.3901C15.218 11.3338 15.218 11.2767 15.2255 11.2203L15.2719 6.64889Z" fill="#FEE500"/>
</svg>
