<?xml version="1.0" encoding="iso-8859-1"?>
<!-- Uploaded to: SVG Repo, www.svgrepo.com, Generator: SVG Repo Mixer Tools -->
<svg fill="current" version="1.1" id="Layer_1" xmlns="http://www.w3.org/2000/svg" xmlns:xlink="http://www.w3.org/1999/xlink" 
	viewBox="0 0 511.998 511.998" xml:space="preserve">
<g>
	<g>
		<g>
			<path d="M214.769,95.983l-41.276-45.022l-2.441-2.662c4.011-15.3,39.014-31.232,84.949-31.232
				c45.926,0,80.939,15.932,84.949,31.232l-2.441,2.662h-0.009l-38.178,41.651l24.397,58.052l54.008-107.998h-21.35
				c-0.128,0-0.256,0.034-0.384,0.034C349.348,17.86,308.55,0,256.002,0s-93.346,17.86-101.001,42.701
				c-0.128,0-0.247-0.034-0.375-0.034h-21.35l53.999,107.998L214.769,95.983z"/>
			<rect x="349.866" y="230.394" width="51.2" height="68.267"/>
			<path d="M443.732,42.665h-45.926l-65.903,131.814c-1.451,2.901-4.412,4.719-7.637,4.719h-0.196
				c-3.302-0.077-6.263-2.057-7.603-5.069l-28.791-67.712l-25.387,27.691c-3.268,3.567-9.31,3.567-12.578,0L227.242,109.6
				l-31.71,64.529c-1.34,3.012-4.301,4.992-7.603,5.069h-0.196c-3.226,0-6.187-1.818-7.637-4.719L114.192,42.665H68.266
				c-14.114,0-25.6,11.486-25.6,25.6v418.133c0,14.114,11.486,25.6,25.6,25.6h375.467c14.114,0,25.6-11.486,25.6-25.6V68.265
				C469.333,54.151,457.847,42.665,443.732,42.665z M255.999,452.265c-4.71,0-8.533-3.823-8.533-8.533s3.823-8.533,8.533-8.533
				c4.71,0,8.533,3.823,8.533,8.533S260.71,452.265,255.999,452.265z M255.999,392.532c-4.71,0-8.533-3.823-8.533-8.533
				s3.823-8.533,8.533-8.533c4.71,0,8.533,3.823,8.533,8.533S260.71,392.532,255.999,392.532z M255.999,332.798
				c-4.71,0-8.533-3.823-8.533-8.533s3.823-8.533,8.533-8.533c4.71,0,8.533,3.823,8.533,8.533S260.71,332.798,255.999,332.798z
				M255.999,273.065c-4.71,0-8.533-3.823-8.533-8.533s3.823-8.533,8.533-8.533c4.71,0,8.533,3.823,8.533,8.533
				S260.71,273.065,255.999,273.065z M255.999,213.332c-4.71,0-8.533-3.823-8.533-8.533s3.823-8.533,8.533-8.533
				c4.71,0,8.533,3.823,8.533,8.533S260.71,213.332,255.999,213.332z M418.133,307.198c0,4.71-3.823,8.533-8.533,8.533h-68.267
				c-4.71,0-8.533-3.823-8.533-8.533v-85.333c0-4.71,3.823-8.533,8.533-8.533h68.267c4.71,0,8.533,3.823,8.533,8.533V307.198z"/>
		</g>
	</g>
</g>
</svg>